HIERARCHY
ROOT mixamorig:Hips
{
	OFFSET -0.000008 104.274872 1.554316
	CHANNELS 6 Xposition Yposition Zposition Xrotation Yrotation Zrotation
	JOINT mixamorig:Spine
	{
		OFFSET -0.000005 10.181595 0.131519
		CHANNELS 6 Xposition Yposition Zposition Xrotation Yrotation Zrotation
		JOINT mixamorig:Spine1
		{
			OFFSET -0.000000 9.893959 -1.470707
			CHANNELS 6 Xposition Yposition Zposition Xrotation Yrotation Zrotation
			JOINT mixamorig:Spine2
			{
				OFFSET -0.000000 9.220757 -1.370641
				CHANNELS 6 Xposition Yposition Zposition Xrotation Yrotation Zrotation
				JOINT mixamorig:Neck
				{
					OFFSET 0.000001 16.740417 -2.049036
					CHANNELS 6 Xposition Yposition Zposition Xrotation Yrotation Zrotation
					JOINT mixamorig:Head
					{
						OFFSET 0.000000 9.617874 1.685006
						CHANNELS 6 Xposition Yposition Zposition Xrotation Yrotation Zrotation
						JOINT mixamorig:HeadTop_End
						{
							OFFSET 0.000002 22.037354 7.501101
							CHANNELS 6 Xposition Yposition Zposition Xrotation Yrotation Zrotation
							End Site
							{
								OFFSET 0.000168 2310.654297 -282.823242
							}
						}
					}
				}
				JOINT mixamorig:RightShoulder
				{
					OFFSET -4.569970 11.014908 -2.160885
					CHANNELS 6 Xposition Yposition Zposition Xrotation Yrotation Zrotation
					JOINT mixamorig:RightArm
					{
						OFFSET -10.592851 -0.524811 -2.232101
						CHANNELS 6 Xposition Yposition Zposition Xrotation Yrotation Zrotation
						JOINT mixamorig:RightForeArm
						{
							OFFSET -27.841511 0.000031 -0.000004
							CHANNELS 6 Xposition Yposition Zposition Xrotation Yrotation Zrotation
							JOINT mixamorig:RightHand
							{
								OFFSET -28.328831 -0.000015 0.000015
								CHANNELS 6 Xposition Yposition Zposition Xrotation Yrotation Zrotation
								JOINT mixamorig:RightHandThumb1
								{
									OFFSET -2.464806 -1.573990 2.681852
									CHANNELS 6 Xposition Yposition Zposition Xrotation Yrotation Zrotation
									JOINT mixamorig:RightHandThumb2
									{
										OFFSET -3.215179 -1.872803 1.924282
										CHANNELS 6 Xposition Yposition Zposition Xrotation Yrotation Zrotation
										JOINT mixamorig:RightHandThumb3
										{
											OFFSET -2.654831 -1.527969 1.512609
											CHANNELS 6 Xposition Yposition Zposition Xrotation Yrotation Zrotation
											JOINT mixamorig:RightHandThumb4
											{
												OFFSET -2.018814 -1.152008 1.108052
												CHANNELS 6 Xposition Yposition Zposition Xrotation Yrotation Zrotation
												End Site
												{
													OFFSET -188.809540 -114.533607 132.431396
												}
											}
										}
									}
								}
								JOINT mixamorig:RightHandIndex1
								{
									OFFSET -9.108284 -0.517868 2.259835
									CHANNELS 6 Xposition Yposition Zposition Xrotation Yrotation Zrotation
									JOINT mixamorig:RightHandIndex2
									{
										OFFSET -3.699989 0.000000 0.001215
										CHANNELS 6 Xposition Yposition Zposition Xrotation Yrotation Zrotation
										JOINT mixamorig:RightHandIndex3
										{
											OFFSET -2.850006 0.000031 -0.000522
											CHANNELS 6 Xposition Yposition Zposition Xrotation Yrotation Zrotation
											JOINT mixamorig:RightHandIndex4
											{
												OFFSET -2.772186 -0.000015 -0.000020
												CHANNELS 6 Xposition Yposition Zposition Xrotation Yrotation Zrotation
												End Site
												{
													OFFSET -277.218445 0.000000 -0.050231
												}
											}
										}
									}
								}
								JOINT mixamorig:RightHandMiddle1
								{
									OFFSET -9.532516 -0.000031 -0.000023
									CHANNELS 6 Xposition Yposition Zposition Xrotation Yrotation Zrotation
									JOINT mixamorig:RightHandMiddle2
									{
										OFFSET -3.700005 -0.000015 0.003713
										CHANNELS 6 Xposition Yposition Zposition Xrotation Yrotation Zrotation
										JOINT mixamorig:RightHandMiddle3
										{
											OFFSET -2.949974 0.000015 -0.002054
											CHANNELS 6 Xposition Yposition Zposition Xrotation Yrotation Zrotation
											JOINT mixamorig:RightHandMiddle4
											{
												OFFSET -2.946640 0.000000 -0.000156
												CHANNELS 6 Xposition Yposition Zposition Xrotation Yrotation Zrotation
												End Site
												{
													OFFSET -294.664337 0.000000 -0.113670
												}
											}
										}
									}
								}
								JOINT mixamorig:RightHandRing1
								{
									OFFSET -9.103600 -0.043076 -1.865134
									CHANNELS 6 Xposition Yposition Zposition Xrotation Yrotation Zrotation
									JOINT mixamorig:RightHandRing2
									{
										OFFSET -3.379288 0.000000 -0.001055
										CHANNELS 6 Xposition Yposition Zposition Xrotation Yrotation Zrotation
										JOINT mixamorig:RightHandRing3
										{
											OFFSET -2.889687 -0.000015 0.000379
											CHANNELS 6 Xposition Yposition Zposition Xrotation Yrotation Zrotation
											JOINT mixamorig:RightHandRing4
											{
												OFFSET -2.638809 -0.000015 0.000941
												CHANNELS 6 Xposition Yposition Zposition Xrotation Yrotation Zrotation
												End Site
												{
													OFFSET -263.880371 0.000000 0.516020
												}
											}
										}
									}
								}
								JOINT mixamorig:RightHandPinky1
								{
									OFFSET -8.076683 -0.486710 -3.806280
									CHANNELS 6 Xposition Yposition Zposition Xrotation Yrotation Zrotation
									JOINT mixamorig:RightHandPinky2
									{
										OFFSET -3.600014 -0.000015 -0.003747
										CHANNELS 6 Xposition Yposition Zposition Xrotation Yrotation Zrotation
										JOINT mixamorig:RightHandPinky3
										{
											OFFSET -2.099983 0.000000 -0.005739
											CHANNELS 6 Xposition Yposition Zposition Xrotation Yrotation Zrotation
											JOINT mixamorig:RightHandPinky4
											{
												OFFSET -2.115768 -0.000031 -0.003680
												CHANNELS 6 Xposition Yposition Zposition Xrotation Yrotation Zrotation
												End Site
												{
													OFFSET -211.577087 0.000000 -0.350686
												}
											}
										}
									}
								}
							}
						}
					}
				}
				JOINT mixamorig:LeftShoulder
				{
					OFFSET 4.570447 11.014725 -2.160855
					CHANNELS 6 Xposition Yposition Zposition Xrotation Yrotation Zrotation
					JOINT mixamorig:LeftArm
					{
						OFFSET 10.592371 -0.524597 -2.232119
						CHANNELS 6 Xposition Yposition Zposition Xrotation Yrotation Zrotation
						JOINT mixamorig:LeftForeArm
						{
							OFFSET 27.841532 -0.000031 0.000026
							CHANNELS 6 Xposition Yposition Zposition Xrotation Yrotation Zrotation
							JOINT mixamorig:LeftHand
							{
								OFFSET 28.328846 -0.000061 0.000022
								CHANNELS 6 Xposition Yposition Zposition Xrotation Yrotation Zrotation
								JOINT mixamorig:LeftHandThumb1
								{
									OFFSET 2.466141 -1.576172 2.681732
									CHANNELS 6 Xposition Yposition Zposition Xrotation Yrotation Zrotation
									JOINT mixamorig:LeftHandThumb2
									{
										OFFSET 3.217812 -1.872070 1.916482
										CHANNELS 6 Xposition Yposition Zposition Xrotation Yrotation Zrotation
										JOINT mixamorig:LeftHandThumb3
										{
											OFFSET 2.656029 -1.528778 1.514513
											CHANNELS 6 Xposition Yposition Zposition Xrotation Yrotation Zrotation
											JOINT mixamorig:LeftHandThumb4
											{
												OFFSET 2.020889 -1.154053 1.115139
												CHANNELS 6 Xposition Yposition Zposition Xrotation Yrotation Zrotation
												End Site
												{
													OFFSET 190.885437 -115.081749 130.048782
												}
											}
										}
									}
								}
								JOINT mixamorig:LeftHandIndex1
								{
									OFFSET 9.109314 -0.518021 2.259871
									CHANNELS 6 Xposition Yposition Zposition Xrotation Yrotation Zrotation
									JOINT mixamorig:LeftHandIndex2
									{
										OFFSET 3.699989 0.000000 -0.000322
										CHANNELS 6 Xposition Yposition Zposition Xrotation Yrotation Zrotation
										JOINT mixamorig:LeftHandIndex3
										{
											OFFSET 2.850006 0.000000 0.000352
											CHANNELS 6 Xposition Yposition Zposition Xrotation Yrotation Zrotation
											JOINT mixamorig:LeftHandIndex4
											{
												OFFSET 2.774864 -0.000031 -0.000027
												CHANNELS 6 Xposition Yposition Zposition Xrotation Yrotation Zrotation
												End Site
												{
													OFFSET 277.486267 0.000000 -0.009857
												}
											}
										}
									}
								}
								JOINT mixamorig:LeftHandMiddle1
								{
									OFFSET 9.533394 0.000061 0.000044
									CHANNELS 6 Xposition Yposition Zposition Xrotation Yrotation Zrotation
									JOINT mixamorig:LeftHandMiddle2
									{
										OFFSET 3.699989 -0.000015 -0.000231
										CHANNELS 6 Xposition Yposition Zposition Xrotation Yrotation Zrotation
										JOINT mixamorig:LeftHandMiddle3
										{
											OFFSET 2.949997 -0.000015 -0.000059
											CHANNELS 6 Xposition Yposition Zposition Xrotation Yrotation Zrotation
											JOINT mixamorig:LeftHandMiddle4
											{
												OFFSET 2.952896 0.000031 0.000063
												CHANNELS 6 Xposition Yposition Zposition Xrotation Yrotation Zrotation
												End Site
												{
													OFFSET 295.289337 0.000000 0.022810
												}
											}
										}
									}
								}
								JOINT mixamorig:LeftHandRing1
								{
									OFFSET 9.104523 -0.042999 -1.865074
									CHANNELS 6 Xposition Yposition Zposition Xrotation Yrotation Zrotation
									JOINT mixamorig:LeftHandRing2
									{
										OFFSET 3.150009 -0.000031 0.000043
										CHANNELS 6 Xposition Yposition Zposition Xrotation Yrotation Zrotation
										JOINT mixamorig:LeftHandRing3
										{
											OFFSET 2.949982 -0.000015 0.000040
											CHANNELS 6 Xposition Yposition Zposition Xrotation Yrotation Zrotation
											JOINT mixamorig:LeftHandRing4
											{
												OFFSET 2.644348 0.000000 0.000057
												CHANNELS 6 Xposition Yposition Zposition Xrotation Yrotation Zrotation
												End Site
												{
													OFFSET 264.434631 0.000000 0.012105
												}
											}
										}
									}
								}
								JOINT mixamorig:LeftHandPinky1
								{
									OFFSET 8.077789 -0.486847 -3.806259
									CHANNELS 6 Xposition Yposition Zposition Xrotation Yrotation Zrotation
									JOINT mixamorig:LeftHandPinky2
									{
										OFFSET 3.599953 0.000031 0.014727
										CHANNELS 6 Xposition Yposition Zposition Xrotation Yrotation Zrotation
										JOINT mixamorig:LeftHandPinky3
										{
											OFFSET 2.100021 0.000015 0.007705
											CHANNELS 6 Xposition Yposition Zposition Xrotation Yrotation Zrotation
											JOINT mixamorig:LeftHandPinky4
											{
												OFFSET 2.125504 0.000031 0.007517
												CHANNELS 6 Xposition Yposition Zposition Xrotation Yrotation Zrotation
												End Site
												{
													OFFSET 212.550781 0.000000 0.625752
												}
											}
										}
									}
								}
							}
						}
					}
				}
			}
		}
	}
	JOINT mixamorig:RightUpLeg
	{
		OFFSET -8.207787 -6.751648 -1.599560
		CHANNELS 6 Xposition Yposition Zposition Xrotation Yrotation Zrotation
		JOINT mixamorig:RightLeg
		{
			OFFSET -0.000002 -44.370117 0.345942
			CHANNELS 6 Xposition Yposition Zposition Xrotation Yrotation Zrotation
			JOINT mixamorig:RightFoot
			{
				OFFSET 0.000003 -44.423679 -3.043532
				CHANNELS 6 Xposition Yposition Zposition Xrotation Yrotation Zrotation
				JOINT mixamorig:RightToeBase
				{
					OFFSET -0.000002 -8.728671 10.710558
					CHANNELS 6 Xposition Yposition Zposition Xrotation Yrotation Zrotation
					JOINT mixamorig:RightToe_End
					{
						OFFSET -0.000001 -0.000679 9.278119
						CHANNELS 6 Xposition Yposition Zposition Xrotation Yrotation Zrotation
						End Site
						{
							OFFSET 0.000000 -0.067690 927.812134
						}
					}
				}
			}
		}
	}
	JOINT mixamorig:LeftUpLeg
	{
		OFFSET 8.207793 -6.751686 -1.599556
		CHANNELS 6 Xposition Yposition Zposition Xrotation Yrotation Zrotation
		JOINT mixamorig:LeftLeg
		{
			OFFSET -0.000004 -44.370014 0.346954
			CHANNELS 6 Xposition Yposition Zposition Xrotation Yrotation Zrotation
			JOINT mixamorig:LeftFoot
			{
				OFFSET -0.000001 -44.423672 -3.044401
				CHANNELS 6 Xposition Yposition Zposition Xrotation Yrotation Zrotation
				JOINT mixamorig:LeftToeBase
				{
					OFFSET -0.000002 -8.728669 10.710558
					CHANNELS 6 Xposition Yposition Zposition Xrotation Yrotation Zrotation
					JOINT mixamorig:LeftToe_End
					{
						OFFSET -0.000003 -0.000679 9.278133
						CHANNELS 6 Xposition Yposition Zposition Xrotation Yrotation Zrotation
						End Site
						{
							OFFSET 0.000000 -0.068021 927.813477
						}
					}
				}
			}
		}
	}
}
MOTION
Frames: 3
Frame Time: 0.033333
0.000006 104.270477 1.554256 0.000010 0.000003 -0.000113 -0.000005 10.181587 0.131522 0.000001 -0.000003 0.000084 -0.000000 9.893967 -1.470711 0.000001 0.000000 -0.000000 -0.000000 9.220802 -1.370642 0.000000 -0.000000 -0.000000 0.000001 16.740433 -2.049030 0.000000 -0.000000 -0.000000 0.000000 9.617859 1.685014 0.000000 0.000000 0.000000 0.000002 22.037384 7.501101 0.000000 -0.000000 0.000000 -4.569968 11.014880 -2.160881 0.000008 0.000001 -0.000038 -10.592796 -0.524837 -2.231761 67.982293 62.996255 -44.898037 -27.841497 0.000010 0.000572 26.749177 100.679338 -32.005064 -28.328842 0.000021 0.000026 -0.000322 -0.000044 0.000006 -2.464962 -1.573969 2.682150 120.429226 -230.683711 169.292044 -3.215297 -1.872818 1.924542 286.800818 38.344853 349.998018 -2.654985 -1.528106 1.512938 95.979451 146.985534 169.373392 -2.018836 -1.152017 1.108055 -0.000007 0.000004 -0.000000 -9.108188 -0.517856 2.260439 8.268907 138.837242 -21.873529 -3.699989 0.000021 0.001768 233.359642 38.937057 70.253065 -2.850047 -0.000034 -0.000044 258.184866 27.732856 33.800888 -2.772192 0.000003 -0.000011 -0.000000 -0.000000 0.000002 -9.532365 -0.000020 0.000580 181.968903 31.764963 172.708860 -3.699983 0.000047 0.004292 224.335869 23.931376 54.908823 -2.950043 -0.000060 -0.001550 245.469185 23.181703 35.387241 -2.946617 0.000001 -0.000154 -0.000002 0.000001 -0.000000 -9.103412 -0.043014 -1.864521 185.812291 28.336653 157.370987 -3.379268 0.000030 -0.000489 226.413271 18.116843 40.812655 -2.889729 -0.000061 0.000892 243.074166 13.321934 21.595113 -2.638818 -0.000014 0.000949 -0.000000 0.000000 0.000000 -8.076538 -0.486580 -3.805681 198.166983 27.184097 113.185715 -3.599977 -0.000025 -0.003181 224.052225 13.995538 33.304617 -2.100015 -0.000093 -0.005233 239.016132 10.406974 18.010755 -2.115775 -0.000041 -0.003677 0.000001 -0.000002 -0.000003 4.570446 11.014691 -2.160851 -0.000018 0.000010 -0.000021 10.592529 -0.524522 -2.232399 73.132632 -61.418325 47.554946 27.841772 -0.000036 -0.000142 55.684497 -94.416744 59.414163 28.328838 -0.000016 0.000030 0.000019 -0.000086 -0.000000 2.466165 -1.576148 2.681870 145.988764 196.306139 -168.502802 3.217836 -1.871933 1.916598 -44.197519 -12.249488 12.304272 2.656056 -1.528721 1.514634 132.181345 -168.656878 192.747242 2.020887 -1.154068 1.115152 0.000003 0.000001 0.000004 9.109211 -0.517942 2.260078 97.275971 -134.686221 139.641264 3.699868 0.000144 -0.000061 253.743304 -36.529344 -47.503942 2.849905 0.000204 0.000600 257.751586 -25.973119 -31.926739 2.774876 -0.000021 -0.000029 0.000002 -0.000002 -0.000002 9.533306 0.000277 0.000298 -112.893793 -23.289128 -34.518034 3.699934 0.000257 0.000019 244.109486 -12.287201 -19.504242 2.949918 0.000221 0.000198 -111.546169 -21.395510 -31.041195 2.952865 -0.000016 0.000065 -0.000000 -0.000000 0.000000 9.104419 -0.042760 -1.864850 -120.913527 -19.150329 -33.151430 3.149980 0.000270 0.000277 250.936205 -4.988875 -7.000041 2.949943 0.000220 0.000296 -100.530932 -9.723713 -11.686835 2.644325 0.000015 0.000053 -0.000001 -0.000000 0.000000 8.077683 -0.486555 -3.806070 -137.513428 -12.099836 -31.252422 3.599964 0.000275 0.014972 -116.945188 0.495901 0.117671 2.099973 0.000241 0.007960 -104.340661 -5.215683 -7.181441 2.125497 -0.000031 0.007520 0.000002 0.000001 -0.000000 -8.207786 -6.751667 -1.599560 -0.077001 -0.000003 0.000080 -0.000002 -44.370110 0.345938 0.153719 -0.000000 -0.000000 0.000000 -44.423679 -3.043532 -0.076700 0.000000 -0.000002 -0.000006 -8.728667 10.710559 -0.000009 -0.000000 -0.000000 -0.000001 -0.000679 9.278123 0.000000 -0.000000 -0.000000 8.207792 -6.751710 -1.599556 -0.074518 -0.000003 0.000081 -0.000002 -44.370014 0.346960 0.148822 0.000002 0.000000 -0.000001 -44.423664 -3.044403 -0.074314 0.000000 -0.000002 -0.000004 -8.728671 10.710558 0.000007 -0.000000 -0.000000 0.000000 -0.000680 9.278137 -0.000000 0.000000 -0.000001 
0.000006 104.270477 1.554256 0.000010 0.000003 -0.000113 -0.000005 10.181587 0.131522 0.000001 -0.000003 0.000084 -0.000000 9.893967 -1.470711 0.000001 0.000000 -0.000000 -0.000000 9.220802 -1.370642 0.000000 -0.000000 -0.000000 0.000001 16.740433 -2.049030 0.000000 -0.000000 -0.000000 0.000000 9.617859 1.685014 0.000000 0.000000 0.000000 0.000002 22.037384 7.501101 0.000000 -0.000000 0.000000 -4.569968 11.014880 -2.160881 0.000008 0.000001 -0.000038 -10.592798 -0.524843 -2.231765 66.244946 62.633846 -43.302242 -27.841499 0.000004 0.000573 21.908404 100.065099 -26.006936 -28.328829 0.000006 0.000021 -0.000321 -0.000044 0.000007 -2.464958 -1.573972 2.682215 93.545690 -232.376532 177.143606 -3.215297 -1.872661 1.924641 268.153992 69.697900 372.435080 -2.655004 -1.527948 1.512960 103.083448 120.745833 179.725609 -2.018831 -1.151999 1.108065 -0.000003 -0.000002 0.000004 -9.108341 -0.517827 2.260364 -30.180711 140.340935 73.458930 -3.699971 0.000047 0.001791 223.045906 49.867095 99.398220 -2.850061 -0.000041 -0.000044 253.801469 28.657158 37.575169 -2.772179 -0.000020 -0.000019 -0.000000 -0.000001 -0.000003 -9.532528 -0.000030 0.000535 156.322744 34.143778 248.207217 -3.699980 0.000057 0.004301 223.690471 28.230511 64.168015 -2.950022 -0.000076 -0.001557 247.626432 19.042357 28.112283 -2.946628 0.000001 -0.000164 0.000001 0.000000 0.000001 -9.103512 -0.043082 -1.864563 166.338889 29.584152 228.960959 -3.379237 0.000010 -0.000470 220.525648 18.546153 47.732613 -2.889739 -0.000070 0.000882 242.764785 9.381531 15.375727 -2.638808 -0.000000 0.000934 -0.000002 0.000001 -0.000001 -8.076548 -0.486720 -3.805705 172.601216 21.113095 219.037842 -3.599967 0.000000 -0.003182 211.613918 7.325143 24.681116 -2.099993 -0.000125 -0.005250 238.113372 3.053629 5.153683 -2.115769 -0.000050 -0.003676 -0.000004 -0.000000 0.000000 4.570446 11.014691 -2.160851 -0.000018 0.000010 -0.000021 10.592530 -0.524523 -2.232398 71.239426 -61.287725 45.997526 27.841784 -0.000027 -0.000146 39.348552 -93.157695 41.394556 28.328821 -0.000016 0.000028 0.000019 -0.000089 -0.000002 2.466151 -1.576083 2.681923 146.285645 226.303975 -163.800941 3.217798 -1.871882 1.916634 -32.185641 -44.720455 15.178992 2.656047 -1.528648 1.514721 134.340464 -141.555479 192.206277 2.020872 -1.154073 1.115145 -0.000001 -0.000002 0.000001 9.109339 -0.518018 2.259912 119.566792 -67.860921 98.218387 3.699787 0.000076 -0.000142 210.177406 -44.631789 -113.389145 2.849768 0.000211 0.000534 208.265199 -28.600582 -90.704694 2.774879 -0.000035 -0.000025 -0.000000 -0.000001 0.000000 9.533295 0.000035 0.000158 -2.940725 -124.894257 -5.647279 3.699774 0.000202 -0.000023 221.863054 -34.364143 -77.904571 2.949896 0.000258 0.000180 -124.736931 -21.567608 -39.989152 2.952853 -0.000031 0.000064 0.000000 -0.000000 -0.000001 9.104389 -0.042995 -1.864950 -168.494333 -48.919539 -155.021252 3.149781 0.000331 0.000283 222.139731 -25.683584 -61.226663 2.949906 0.000329 0.000283 -122.249157 -11.609755 -20.892090 2.644323 0.000028 0.000054 -0.000002 -0.000001 0.000001 8.077581 -0.486815 -3.806110 -163.979072 -40.850091 -137.843531 3.599828 0.000354 0.014956 -135.495681 -12.673711 -31.009554 2.099971 0.000306 0.007946 -121.414576 -2.947694 -5.923989 2.125503 -0.000031 0.007513 -0.000001 0.000000 0.000000 -8.207786 -6.751667 -1.599560 -0.077001 -0.000003 0.000080 -0.000002 -44.370110 0.345938 0.153719 -0.000000 -0.000000 0.000000 -44.423679 -3.043532 -0.076700 0.000000 -0.000002 -0.000006 -8.728667 10.710559 -0.000009 -0.000000 -0.000000 -0.000001 -0.000679 9.278123 0.000000 -0.000000 -0.000000 8.207792 -6.751710 -1.599556 -0.074518 -0.000003 0.000081 -0.000002 -44.370014 0.346960 0.148822 0.000002 0.000000 -0.000001 -44.423664 -3.044403 -0.074314 0.000000 -0.000002 -0.000004 -8.728671 10.710558 0.000007 -0.000000 -0.000000 0.000000 -0.000680 9.278137 -0.000000 0.000000 -0.000001 
0.000006 104.270477 1.554256 0.000010 0.000003 -0.000113 -0.000005 10.181587 0.131522 0.000001 -0.000003 0.000084 -0.000000 9.893967 -1.470711 0.000001 0.000000 -0.000000 -0.000000 9.220802 -1.370642 0.000000 -0.000000 -0.000000 0.000001 16.740433 -2.049030 0.000000 -0.000000 -0.000000 0.000000 9.617859 1.685014 0.000000 0.000000 0.000000 0.000002 22.037384 7.501101 0.000000 -0.000000 0.000000 -4.569968 11.014880 -2.160881 0.000008 0.000001 -0.000038 -10.592801 -0.524827 -2.231764 66.523037 62.730657 -43.585886 -27.841499 0.000002 0.000577 24.141882 100.220240 -28.703071 -28.328833 0.000008 0.000022 -0.000324 -0.000045 0.000008 -2.464965 -1.573945 2.682171 116.623936 -239.226556 171.928770 -3.215320 -1.872668 1.924628 294.973249 68.708322 356.909732 -2.655010 -1.527944 1.512980 101.450350 114.187669 183.905698 -2.018830 -1.151999 1.108047 -0.000003 -0.000000 0.000000 -9.108316 -0.517850 2.260371 -2.276441 117.852496 3.713081 -3.699976 0.000032 0.001783 202.910440 61.799606 142.615620 -2.850006 0.000053 0.000043 218.414218 52.031251 108.963551 -2.772179 -0.000017 -0.000019 0.000000 -0.000002 0.000000 -9.532418 -0.000015 0.000575 187.874107 44.073725 160.463424 -3.699969 0.000068 0.004305 221.775354 27.758387 65.815566 -2.950008 -0.000052 -0.001512 238.264592 22.139040 38.680420 -2.946627 0.000004 -0.000159 -0.000002 0.000000 -0.000002 -9.103464 -0.042992 -1.864524 191.107600 38.818123 149.215618 -3.379272 -0.000004 -0.000497 232.855028 19.867448 38.837268 -2.889753 -0.000060 0.000865 247.273175 12.408628 18.604875 -2.638810 -0.000000 0.000937 0.000000 -0.000000 0.000000 -8.076554 -0.486654 -3.805685 191.280759 35.323942 145.784268 -3.600018 -0.000072 -0.003193 231.641686 15.112939 30.272146 -2.100010 -0.000133 -0.005262 248.513837 8.873456 12.756874 -2.115775 -0.000056 -0.003678 -0.000001 -0.000000 -0.000003 4.570446 11.014691 -2.160851 -0.000018 0.000010 -0.000021 10.592520 -0.524526 -2.232396 70.324113 -61.291570 45.307483 27.841782 -0.000045 -0.000133 35.212098 -93.693721 37.400036 28.328835 -0.000016 0.000021 0.000018 -0.000089 -0.000001 2.466163 -1.576112 2.681908 151.474253 219.493921 -164.405290 3.217807 -1.871898 1.916649 -32.785717 -41.439690 14.541331 2.656033 -1.528671 1.514704 133.132162 -143.056878 192.119725 2.020883 -1.154075 1.115154 0.000001 0.000002 0.000003 9.109267 -0.518027 2.259978 173.655975 -77.229263 172.048886 3.699792 0.000115 -0.000116 223.752407 -47.320469 -94.988137 2.849807 0.000245 0.000556 223.941535 -29.009627 -65.340875 2.774877 -0.000026 -0.000024 -0.000001 0.000001 0.000001 9.533243 0.000062 0.000196 13.078071 -126.478301 25.600780 3.699826 0.000237 -0.000004 231.349763 -28.420250 -55.555751 2.949907 0.000241 0.000181 -120.795871 -17.516493 -30.347152 2.952863 -0.000031 0.000064 -0.000000 -0.000000 0.000001 9.104345 -0.042933 -1.864910 -154.198815 -45.500299 -122.711821 3.149867 0.000350 0.000283 231.852684 -17.587626 -35.305371 2.949965 0.000277 0.000277 -116.479587 -5.444950 -8.786921 2.644331 0.000048 0.000059 -0.000001 0.000002 0.000004 8.077568 -0.486774 -3.806082 -154.110200 -40.686481 -115.941601 3.599946 0.000362 0.014956 -130.632613 -3.158264 -7.706390 2.100023 0.000268 0.007932 -116.706595 5.192211 7.699931 2.125511 -0.000015 0.007514 -0.000002 -0.000000 0.000000 -8.207786 -6.751667 -1.599560 -0.077001 -0.000003 0.000080 -0.000002 -44.370110 0.345938 0.153719 -0.000000 -0.000000 0.000000 -44.423679 -3.043532 -0.076700 0.000000 -0.000002 -0.000006 -8.728667 10.710559 -0.000009 -0.000000 -0.000000 -0.000001 -0.000679 9.278123 0.000000 -0.000000 -0.000000 8.207792 -6.751710 -1.599556 -0.074518 -0.000003 0.000081 -0.000002 -44.370014 0.346960 0.148822 0.000002 0.000000 -0.000001 -44.423664 -3.044403 -0.074314 0.000000 -0.000002 -0.000004 -8.728671 10.710558 0.000007 -0.000000 -0.000000 0.000000 -0.000680 9.278137 -0.000000 0.000000 -0.000001 
